<svg width="44" height="44" viewBox="0 0 44 44" fill="none" xmlns="http://www.w3.org/2000/svg">
<g filter="url(#filter0_d)">
<path d="M15.1188 7.6875H25.8813C29.9813 7.6875 33.3125 11.0188 33.3125 15.1188V25.8813C33.3125 27.8521 32.5296 29.7423 31.1359 31.1359C29.7423 32.5296 27.8521 33.3125 25.8813 33.3125H15.1188C11.0188 33.3125 7.6875 29.9813 7.6875 25.8813V15.1188C7.6875 13.1479 8.47043 11.2577 9.86406 9.86406C11.2577 8.47043 13.1479 7.6875 15.1188 7.6875ZM14.8625 10.25C13.6392 10.25 12.466 10.736 11.601 11.601C10.736 12.466 10.25 13.6392 10.25 14.8625V26.1375C10.25 28.6872 12.3128 30.75 14.8625 30.75H26.1375C27.3608 30.75 28.534 30.264 29.399 29.399C30.264 28.534 30.75 27.3608 30.75 26.1375V14.8625C30.75 12.3128 28.6872 10.25 26.1375 10.25H14.8625ZM27.2266 12.1719C27.6513 12.1719 28.0587 12.3406 28.359 12.641C28.6594 12.9413 28.8281 13.3487 28.8281 13.7734C28.8281 14.1982 28.6594 14.6056 28.359 14.9059C28.0587 15.2063 27.6513 15.375 27.2266 15.375C26.8018 15.375 26.3944 15.2063 26.0941 14.9059C25.7937 14.6056 25.625 14.1982 25.625 13.7734C25.625 13.3487 25.7937 12.9413 26.0941 12.641C26.3944 12.3406 26.8018 12.1719 27.2266 12.1719ZM20.5 14.0938C22.199 14.0938 23.8285 14.7687 25.0299 15.9701C26.2313 17.1715 26.9062 18.801 26.9062 20.5C26.9062 22.199 26.2313 23.8285 25.0299 25.0299C23.8285 26.2313 22.199 26.9062 20.5 26.9062C18.801 26.9062 17.1715 26.2313 15.9701 25.0299C14.7687 23.8285 14.0938 22.199 14.0938 20.5C14.0938 18.801 14.7687 17.1715 15.9701 15.9701C17.1715 14.7687 18.801 14.0938 20.5 14.0938ZM20.5 16.6562C19.4806 16.6562 18.5029 17.0612 17.7821 17.7821C17.0612 18.5029 16.6562 19.4806 16.6562 20.5C16.6562 21.5194 17.0612 22.4971 17.7821 23.2179C18.5029 23.9388 19.4806 24.3438 20.5 24.3438C21.5194 24.3438 22.4971 23.9388 23.2179 23.2179C23.9388 22.4971 24.3438 21.5194 24.3438 20.5C24.3438 19.4806 23.9388 18.5029 23.2179 17.7821C22.4971 17.0612 21.5194 16.6562 20.5 16.6562Z" fill="url(#paint0_linear)"/>
<path d="M15.1188 7.6875H25.8813C29.9813 7.6875 33.3125 11.0188 33.3125 15.1188V25.8813C33.3125 27.8521 32.5296 29.7423 31.1359 31.1359C29.7423 32.5296 27.8521 33.3125 25.8813 33.3125H15.1188C11.0188 33.3125 7.6875 29.9813 7.6875 25.8813V15.1188C7.6875 13.1479 8.47043 11.2577 9.86406 9.86406C11.2577 8.47043 13.1479 7.6875 15.1188 7.6875ZM14.8625 10.25C13.6392 10.25 12.466 10.736 11.601 11.601C10.736 12.466 10.25 13.6392 10.25 14.8625V26.1375C10.25 28.6872 12.3128 30.75 14.8625 30.75H26.1375C27.3608 30.75 28.534 30.264 29.399 29.399C30.264 28.534 30.75 27.3608 30.75 26.1375V14.8625C30.75 12.3128 28.6872 10.25 26.1375 10.25H14.8625ZM27.2266 12.1719C27.6513 12.1719 28.0587 12.3406 28.359 12.641C28.6594 12.9413 28.8281 13.3487 28.8281 13.7734C28.8281 14.1982 28.6594 14.6056 28.359 14.9059C28.0587 15.2063 27.6513 15.375 27.2266 15.375C26.8018 15.375 26.3944 15.2063 26.0941 14.9059C25.7937 14.6056 25.625 14.1982 25.625 13.7734C25.625 13.3487 25.7937 12.9413 26.0941 12.641C26.3944 12.3406 26.8018 12.1719 27.2266 12.1719ZM20.5 14.0938C22.199 14.0938 23.8285 14.7687 25.0299 15.9701C26.2313 17.1715 26.9062 18.801 26.9062 20.5C26.9062 22.199 26.2313 23.8285 25.0299 25.0299C23.8285 26.2313 22.199 26.9062 20.5 26.9062C18.801 26.9062 17.1715 26.2313 15.9701 25.0299C14.7687 23.8285 14.0938 22.199 14.0938 20.5C14.0938 18.801 14.7687 17.1715 15.9701 15.9701C17.1715 14.7687 18.801 14.0938 20.5 14.0938ZM20.5 16.6562C19.4806 16.6562 18.5029 17.0612 17.7821 17.7821C17.0612 18.5029 16.6562 19.4806 16.6562 20.5C16.6562 21.5194 17.0612 22.4971 17.7821 23.2179C18.5029 23.9388 19.4806 24.3438 20.5 24.3438C21.5194 24.3438 22.4971 23.9388 23.2179 23.2179C23.9388 22.4971 24.3438 21.5194 24.3438 20.5C24.3438 19.4806 23.9388 18.5029 23.2179 17.7821C22.4971 17.0612 21.5194 16.6562 20.5 16.6562Z" fill="url(#paint1_linear)"/>
</g>
<defs>
<filter id="filter0_d" x="-4" y="-4" width="55" height="55" filterUnits="userSpaceOnUse" color-interpolation-filters="sRGB">
<feFlood flood-opacity="0" result="BackgroundImageFix"/>
<feColorMatrix in="SourceAlpha" type="matrix" values="0 0 0 0 0 0 0 0 0 0 0 0 0 0 0 0 0 0 127 0"/>
<feOffset dx="3" dy="3"/>
<feGaussianBlur stdDeviation="3.5"/>
<feColorMatrix type="matrix" values="0 0 0 0 0.82 0 0 0 0 0.18 0 0 0 0 0.18 0 0 0 0.27 0"/>
<feBlend mode="normal" in2="BackgroundImageFix" result="effect1_dropShadow"/>
<feBlend mode="normal" in="SourceGraphic" in2="effect1_dropShadow" result="shape"/>
</filter>
<linearGradient id="paint0_linear" x1="7.6875" y1="20.5" x2="33.3125" y2="20.5016" gradientUnits="userSpaceOnUse">
<stop stop-color="#D12E2E"/>
<stop offset="1" stop-color="#4E0E0E"/>
</linearGradient>
<linearGradient id="paint1_linear" x1="33.3125" y1="20.5" x2="7.6875" y2="20.5" gradientUnits="userSpaceOnUse">
<stop stop-color="#BC5353" stop-opacity="0.36"/>
<stop offset="1" stop-color="#E31414" stop-opacity="0"/>
</linearGradient>
</defs>
</svg>
