<svg width="13" height="19" viewBox="0 0 13 19" fill="none" xmlns="http://www.w3.org/2000/svg">
<path d="M12.129 9.54096C12.1304 9.78655 12.0831 10.03 11.9898 10.2574C11.8965 10.4847 11.759 10.6915 11.5853 10.8659L4.08526 18.3303C3.91044 18.5043 3.70289 18.6424 3.47448 18.7365C3.24606 18.8307 3.00125 18.8792 2.75401 18.8792C2.50677 18.8792 2.26196 18.8307 2.03354 18.7365C1.80512 18.6424 1.59758 18.5043 1.42276 18.3303C1.24794 18.1563 1.10926 17.9498 1.01465 17.7225C0.920033 17.4951 0.871338 17.2515 0.871338 17.0054C0.871338 16.7593 0.920033 16.5157 1.01465 16.2884C1.10926 16.061 1.24794 15.8545 1.42276 15.6805L7.62901 9.54096L1.66651 3.3828C1.47472 3.21113 1.32057 3.00193 1.21373 2.76826C1.10688 2.5346 1.04962 2.28152 1.04553 2.02482C1.04145 1.76814 1.09062 1.51336 1.18998 1.27645C1.28934 1.03954 1.43674 0.825581 1.62298 0.647955C1.80921 0.470327 2.03026 0.332851 2.27232 0.244131C2.51437 0.155411 2.77221 0.117352 3.02971 0.132332C3.28722 0.147314 3.53885 0.215015 3.76887 0.3312C3.99888 0.447384 4.20234 0.609552 4.36651 0.807566L11.604 8.27201C11.9346 8.61327 12.1223 9.06696 12.129 9.54096Z" fill="#0D0D0D"/>
</svg>
