<svg width="41" height="41" viewBox="0 0 41 41" fill="none" xmlns="http://www.w3.org/2000/svg">
<g filter="url(#filter0_d)">
<path d="M26.0863 23.0625C26.1888 22.2169 26.2656 21.3713 26.2656 20.5C26.2656 19.6287 26.1888 18.7831 26.0863 17.9375H30.4169C30.6219 18.7575 30.75 19.6159 30.75 20.5C30.75 21.3841 30.6219 22.2425 30.4169 23.0625H26.0863ZM23.8184 30.1862C24.5872 28.7641 25.1766 27.2266 25.5866 25.625H29.3663C28.1362 27.7391 26.1759 29.3791 23.8184 30.1862ZM23.4981 23.0625H17.5019C17.3737 22.2169 17.2969 21.3713 17.2969 20.5C17.2969 19.6287 17.3737 18.7703 17.5019 17.9375H23.4981C23.6134 18.7703 23.7031 19.6287 23.7031 20.5C23.7031 21.3713 23.6134 22.2169 23.4981 23.0625ZM20.5 30.6987C19.4366 29.1612 18.5781 27.4572 18.0528 25.625H22.9472C22.4219 27.4572 21.5634 29.1612 20.5 30.6987ZM15.375 15.375H11.6337C12.8509 13.2481 14.8241 11.6081 17.1687 10.8138C16.4 12.2359 15.8234 13.7734 15.375 15.375ZM11.6337 25.625H15.375C15.8234 27.2266 16.4 28.7641 17.1687 30.1862C14.8241 29.3791 12.8509 27.7391 11.6337 25.625ZM10.5831 23.0625C10.3781 22.2425 10.25 21.3841 10.25 20.5C10.25 19.6159 10.3781 18.7575 10.5831 17.9375H14.9137C14.8112 18.7831 14.7344 19.6287 14.7344 20.5C14.7344 21.3713 14.8112 22.2169 14.9137 23.0625H10.5831ZM20.5 10.2884C21.5634 11.8259 22.4219 13.5428 22.9472 15.375H18.0528C18.5781 13.5428 19.4366 11.8259 20.5 10.2884ZM29.3663 15.375H25.5866C25.1766 13.7734 24.5872 12.2359 23.8184 10.8138C26.1759 11.6209 28.1362 13.2481 29.3663 15.375ZM20.5 7.6875C13.4147 7.6875 7.6875 13.4531 7.6875 20.5C7.6875 23.8981 9.03738 27.157 11.4402 29.5598C12.6299 30.7496 14.0424 31.6933 15.5969 32.3372C17.1514 32.9811 18.8174 33.3125 20.5 33.3125C23.8981 33.3125 27.157 31.9626 29.5598 29.5598C31.9626 27.157 33.3125 23.8981 33.3125 20.5C33.3125 18.8174 32.9811 17.1514 32.3372 15.5969C31.6933 14.0424 30.7496 12.6299 29.5598 11.4402C28.3701 10.2504 26.9576 9.30668 25.4031 8.66279C23.8486 8.01891 22.1826 7.6875 20.5 7.6875Z" fill="#F1F1F1"/>
</g>
<defs>
<filter id="filter0_d" x="-2" y="-2" width="49" height="49" filterUnits="userSpaceOnUse" color-interpolation-filters="sRGB">
<feFlood flood-opacity="0" result="BackgroundImageFix"/>
<feColorMatrix in="SourceAlpha" type="matrix" values="0 0 0 0 0 0 0 0 0 0 0 0 0 0 0 0 0 0 127 0"/>
<feOffset dx="2" dy="2"/>
<feGaussianBlur stdDeviation="2"/>
<feColorMatrix type="matrix" values="0 0 0 0 1 0 0 0 0 1 0 0 0 0 1 0 0 0 0.06 0"/>
<feBlend mode="normal" in2="BackgroundImageFix" result="effect1_dropShadow"/>
<feBlend mode="normal" in="SourceGraphic" in2="effect1_dropShadow" result="shape"/>
</filter>
</defs>
</svg>
